<svg width="154" height="32" viewBox="0 0 154 32" fill="none" xmlns="http://www.w3.org/2000/svg">
<path d="M0 8.42105C0 3.77023 3.77023 0 8.42105 0H23.5789C28.2298 0 32 3.77023 32 8.42105V23.5789C32 28.2298 28.2298 32 23.5789 32H8.42105C3.77023 32 0 28.2298 0 23.5789V8.42105Z" fill="#465FFF"></path>
<g filter="url(#filter0_d_1624_24907)">
<path d="M8.42383 8.42152C8.42383 7.49135 9.17787 6.7373 10.108 6.7373V6.7373C11.0382 6.7373 11.7922 7.49135 11.7922 8.42152V23.5794C11.7922 24.5096 11.0382 25.2636 10.108 25.2636V25.2636C9.17787 25.2636 8.42383 24.5096 8.42383 23.5794V8.42152Z" fill="white"></path>
</g>
<g filter="url(#filter1_d_1624_24907)">
<path d="M14.7422 15.1569C14.7422 14.2267 15.4962 13.4727 16.4264 13.4727V13.4727C17.3566 13.4727 18.1106 14.2267 18.1106 15.1569V23.5779C18.1106 24.5081 17.3566 25.2621 16.4264 25.2621V25.2621C15.4962 25.2621 14.7422 24.5081 14.7422 23.5779V15.1569Z" fill="white" fill-opacity="0.9" shape-rendering="crispEdges"></path>
</g>
<g filter="url(#filter2_d_1624_24907)">
<path d="M21.0547 10.9459C21.0547 10.0158 21.8087 9.26172 22.7389 9.26172V9.26172C23.6691 9.26172 24.4231 10.0158 24.4231 10.9459V23.5775C24.4231 24.5077 23.6691 25.2617 22.7389 25.2617V25.2617C21.8087 25.2617 21.0547 24.5077 21.0547 23.5775V10.9459Z" fill="white" fill-opacity="0.7" shape-rendering="crispEdges"></path>
</g>
<path d="M38.9408 24.6909L40.3437 20.6724H46.8352L48.2381 24.6909H51.4481L45.1707 7.30912H42.0558L35.7784 24.6909H38.9408ZM43.2209 12.4927C43.3873 12.0172 43.53 11.4941 43.6013 11.1612C43.6489 11.5178 43.8153 12.041 43.958 12.4927L45.9554 18.1044H41.2473L43.2209 12.4927Z" fill="#101828"></path>
<path d="M57.493 25C59.276 25 60.798 24.2153 61.511 22.86L61.701 24.6909H64.364V7H61.487V14.4425C60.75 13.2774 59.3 12.5878 57.659 12.5878C54.1161 12.5878 51.9761 15.2034 51.9761 18.8653C51.9761 22.5033 54.0923 25 57.493 25ZM58.135 22.3369C56.113 22.3369 54.877 20.8626 54.877 18.7701C54.877 16.6777 56.113 15.1797 58.135 15.1797C60.156 15.1797 61.463 16.6539 61.463 18.7701C61.463 20.8864 60.156 22.3369 58.135 22.3369Z" fill="#101828"></path>
<path d="M70.289 24.6909V18.033C70.289 16.1308 71.406 15.2272 72.785 15.2272C74.164 15.2272 75.044 16.107 75.044 17.7477V24.6909H77.945V18.033C77.945 16.107 79.015 15.2034 80.418 15.2034C81.797 15.2034 82.701 16.0832 82.701 17.7715V24.6909H85.578V17.0106C85.578 14.2999 84.008 12.5878 81.155 12.5878C79.372 12.5878 77.993 13.4676 77.398 14.823C76.78 13.4676 75.543 12.5878 73.76 12.5878C72.072 12.5878 70.883 13.3487 70.289 14.3236L70.051 12.9445H67.388V24.6909H70.289Z" fill="#101828"></path>
<path d="M89.876 10.5905C90.827 10.5905 91.612 9.80581 91.612 8.83091C91.612 7.85601 90.827 7.09511 89.876 7.09511C88.877 7.09511 88.093 7.85601 88.093 8.83091C88.093 9.80581 88.877 10.5905 89.876 10.5905ZM88.426 24.6909H91.327V12.9445H88.426V24.6909Z" fill="#101828"></path>
<path d="M97.225 24.6909V18.3659C97.225 16.4637 98.318 15.2272 100.102 15.2272C101.6 15.2272 102.575 16.1783 102.575 18.1519V24.6909H105.476V17.4624C105.476 14.4188 103.954 12.5878 101.005 12.5878C99.412 12.5878 97.985 13.2774 97.248 14.4663L97.011 12.9445H94.324V24.6909H97.225Z" fill="#101828"></path>
<defs>
<filter id="filter0_d_1624_24907" x="7.42383" y="6.2373" width="5.36841" height="20.5263" filterUnits="userSpaceOnUse" color-interpolation-filters="sRGB">
<feFlood flood-opacity="0" result="BackgroundImageFix"></feFlood>
<feColorMatrix in="SourceAlpha" type="matrix" values="0 0 0 0 0 0 0 0 0 0 0 0 0 0 0 0 0 0 127 0" result="hardAlpha"></feColorMatrix>
<feOffset dy="0.5"></feOffset>
<feGaussianBlur stdDeviation="0.5"></feGaussianBlur>
<feComposite in2="hardAlpha" operator="out"></feComposite>
<feColorMatrix type="matrix" values="0 0 0 0 0 0 0 0 0 0 0 0 0 0 0 0 0 0 0.12 0"></feColorMatrix>
<feBlend mode="normal" in2="BackgroundImageFix" result="effect1_dropShadow_1624_24907"></feBlend>
<feBlend mode="normal" in="SourceGraphic" in2="effect1_dropShadow_1624_24907" result="shape"></feBlend>
</filter>
<filter id="filter1_d_1624_24907" x="13.7422" y="12.9727" width="5.36841" height="13.7895" filterUnits="userSpaceOnUse" color-interpolation-filters="sRGB">
<feFlood flood-opacity="0" result="BackgroundImageFix"></feFlood>
<feColorMatrix in="SourceAlpha" type="matrix" values="0 0 0 0 0 0 0 0 0 0 0 0 0 0 0 0 0 0 127 0" result="hardAlpha"></feColorMatrix>
<feOffset dy="0.5"></feOffset>
<feGaussianBlur stdDeviation="0.5"></feGaussianBlur>
<feComposite in2="hardAlpha" operator="out"></feComposite>
<feColorMatrix type="matrix" values="0 0 0 0 0 0 0 0 0 0 0 0 0 0 0 0 0 0 0.12 0"></feColorMatrix>
<feBlend mode="normal" in2="BackgroundImageFix" result="effect1_dropShadow_1624_24907"></feBlend>
<feBlend mode="normal" in="SourceGraphic" in2="effect1_dropShadow_1624_24907" result="shape"></feBlend>
</filter>
<filter id="filter2_d_1624_24907" x="20.0547" y="8.76172" width="5.36841" height="18" filterUnits="userSpaceOnUse" color-interpolation-filters="sRGB">
<feFlood flood-opacity="0" result="BackgroundImageFix"></feFlood>
<feColorMatrix in="SourceAlpha" type="matrix" values="0 0 0 0 0 0 0 0 0 0 0 0 0 0 0 0 0 0 0.12 0" result="hardAlpha"></feColorMatrix>
<feOffset dy="0.5"></feOffset>
<feGaussianBlur stdDeviation="0.5"></feGaussianBlur>
<feComposite in2="hardAlpha" operator="out"></feComposite>
<feColorMatrix type="matrix" values="0 0 0 0 0 0 0 0 0 0 0 0 0 0 0 0 0 0 0.12 0"></feColorMatrix>
<feBlend mode="normal" in2="BackgroundImageFix" result="effect1_dropShadow_1624_24907"></feBlend>
<feBlend mode="normal" in="SourceGraphic" in2="effect1_dropShadow_1624_24907" result="shape"></feBlend>
</filter>
</defs>
</svg>